<mxfile host="Electron" modified="2023-11-14T02:23:28.361Z" agent="Mozilla/5.0 (Macintosh; Intel Mac OS X 10_15_7) AppleWebKit/537.36 (KHTML, like Gecko) draw.io/22.0.3 Chrome/114.0.5735.289 Electron/25.8.4 Safari/537.36" etag="E5NhszhtPR38uW7p9Gvm" version="22.0.3" type="device">
  <diagram id="C5RBs43oDa-KdzZeNtuy" name="Page-1">
    <mxGraphModel dx="1114" dy="802" grid="1" gridSize="10" guides="1" tooltips="1" connect="1" arrows="1" fold="1" page="1" pageScale="1" pageWidth="827" pageHeight="1169" math="0" shadow="0">
      <root>
        <mxCell id="WIyWlLk6GJQsqaUBKTNV-0" />
        <mxCell id="WIyWlLk6GJQsqaUBKTNV-1" parent="WIyWlLk6GJQsqaUBKTNV-0" />
        <mxCell id="WIyWlLk6GJQsqaUBKTNV-2" value="" style="rounded=0;html=1;jettySize=auto;orthogonalLoop=1;fontSize=11;endArrow=block;endFill=0;endSize=8;strokeWidth=1;shadow=0;labelBackgroundColor=none;edgeStyle=orthogonalEdgeStyle;" parent="WIyWlLk6GJQsqaUBKTNV-1" edge="1">
          <mxGeometry relative="1" as="geometry">
            <mxPoint x="220" y="120" as="sourcePoint" />
            <mxPoint x="220" y="170" as="targetPoint" />
          </mxGeometry>
        </mxCell>
        <mxCell id="ySk-wd9wmHOXHbUx4WnY-27" value="" style="edgeStyle=orthogonalEdgeStyle;rounded=0;orthogonalLoop=1;jettySize=auto;html=1;" edge="1" parent="WIyWlLk6GJQsqaUBKTNV-1" source="ySk-wd9wmHOXHbUx4WnY-0" target="ySk-wd9wmHOXHbUx4WnY-1">
          <mxGeometry relative="1" as="geometry" />
        </mxCell>
        <mxCell id="ySk-wd9wmHOXHbUx4WnY-0" value="&amp;nbsp;시작" style="ellipse;whiteSpace=wrap;html=1;" vertex="1" parent="WIyWlLk6GJQsqaUBKTNV-1">
          <mxGeometry x="160" y="60" width="120" height="50" as="geometry" />
        </mxCell>
        <mxCell id="WIyWlLk6GJQsqaUBKTNV-5" value="No" style="edgeStyle=orthogonalEdgeStyle;rounded=0;html=1;jettySize=auto;orthogonalLoop=1;fontSize=11;endArrow=block;endFill=0;endSize=8;strokeWidth=1;shadow=0;labelBackgroundColor=none;verticalAlign=middle;entryX=1;entryY=0.5;entryDx=0;entryDy=0;" parent="WIyWlLk6GJQsqaUBKTNV-1" source="ySk-wd9wmHOXHbUx4WnY-4" target="ySk-wd9wmHOXHbUx4WnY-15" edge="1">
          <mxGeometry x="-0.8507" y="15" relative="1" as="geometry">
            <mxPoint as="offset" />
            <mxPoint x="300" y="434.5" as="sourcePoint" />
            <mxPoint x="340" y="660" as="targetPoint" />
            <Array as="points">
              <mxPoint x="360" y="435" />
              <mxPoint x="360" y="650" />
            </Array>
          </mxGeometry>
        </mxCell>
        <mxCell id="ySk-wd9wmHOXHbUx4WnY-1" value="drawIcecream의&lt;br&gt;length: 1" style="rounded=0;whiteSpace=wrap;html=1;" vertex="1" parent="WIyWlLk6GJQsqaUBKTNV-1">
          <mxGeometry x="160" y="170" width="120" height="60" as="geometry" />
        </mxCell>
        <mxCell id="ySk-wd9wmHOXHbUx4WnY-2" value="" style="endArrow=classic;html=1;rounded=0;entryX=0.5;entryY=0;entryDx=0;entryDy=0;exitX=0.5;exitY=1;exitDx=0;exitDy=0;" edge="1" parent="WIyWlLk6GJQsqaUBKTNV-1" source="ySk-wd9wmHOXHbUx4WnY-1">
          <mxGeometry width="50" height="50" relative="1" as="geometry">
            <mxPoint x="200" y="300" as="sourcePoint" />
            <mxPoint x="220" y="290" as="targetPoint" />
          </mxGeometry>
        </mxCell>
        <mxCell id="ySk-wd9wmHOXHbUx4WnY-6" value="" style="edgeStyle=orthogonalEdgeStyle;rounded=0;orthogonalLoop=1;jettySize=auto;html=1;" edge="1" parent="WIyWlLk6GJQsqaUBKTNV-1" source="ySk-wd9wmHOXHbUx4WnY-3" target="ySk-wd9wmHOXHbUx4WnY-4">
          <mxGeometry relative="1" as="geometry" />
        </mxCell>
        <mxCell id="ySk-wd9wmHOXHbUx4WnY-3" value="print&lt;span style=&quot;color: rgba(255, 255, 255, 0.85);&quot; class=&quot;s2&quot;&gt;(&lt;/span&gt;&quot;***********&quot;&lt;span style=&quot;color: rgba(255, 255, 255, 0.85);&quot; class=&quot;s2&quot;&gt;)&lt;br&gt;출력&lt;/span&gt;" style="rounded=0;whiteSpace=wrap;html=1;" vertex="1" parent="WIyWlLk6GJQsqaUBKTNV-1">
          <mxGeometry x="160" y="290" width="120" height="60" as="geometry" />
        </mxCell>
        <mxCell id="ySk-wd9wmHOXHbUx4WnY-21" value="" style="edgeStyle=orthogonalEdgeStyle;rounded=0;orthogonalLoop=1;jettySize=auto;html=1;" edge="1" parent="WIyWlLk6GJQsqaUBKTNV-1" source="ySk-wd9wmHOXHbUx4WnY-15" target="ySk-wd9wmHOXHbUx4WnY-19">
          <mxGeometry relative="1" as="geometry" />
        </mxCell>
        <mxCell id="ySk-wd9wmHOXHbUx4WnY-15" value="drawStick의&lt;br&gt;length: 1" style="rounded=0;whiteSpace=wrap;html=1;" vertex="1" parent="WIyWlLk6GJQsqaUBKTNV-1">
          <mxGeometry x="160" y="620" width="120" height="60" as="geometry" />
        </mxCell>
        <mxCell id="ySk-wd9wmHOXHbUx4WnY-18" value="" style="edgeStyle=orthogonalEdgeStyle;rounded=0;html=1;jettySize=auto;orthogonalLoop=1;fontSize=11;endArrow=block;endFill=0;endSize=8;strokeWidth=1;shadow=0;labelBackgroundColor=none;verticalAlign=middle;entryX=1;entryY=0.5;entryDx=0;entryDy=0;" edge="1" parent="WIyWlLk6GJQsqaUBKTNV-1" target="ySk-wd9wmHOXHbUx4WnY-4">
          <mxGeometry x="-0.8507" y="15" relative="1" as="geometry">
            <mxPoint as="offset" />
            <mxPoint x="300" y="434.5" as="sourcePoint" />
            <mxPoint x="280" y="650" as="targetPoint" />
          </mxGeometry>
        </mxCell>
        <mxCell id="ySk-wd9wmHOXHbUx4WnY-31" value="" style="edgeStyle=orthogonalEdgeStyle;rounded=0;orthogonalLoop=1;jettySize=auto;html=1;" edge="1" parent="WIyWlLk6GJQsqaUBKTNV-1" source="ySk-wd9wmHOXHbUx4WnY-4" target="ySk-wd9wmHOXHbUx4WnY-30">
          <mxGeometry relative="1" as="geometry" />
        </mxCell>
        <mxCell id="ySk-wd9wmHOXHbUx4WnY-4" value="&lt;br&gt;length가 &amp;lt; 8보다 작은가?" style="rhombus;whiteSpace=wrap;html=1;" vertex="1" parent="WIyWlLk6GJQsqaUBKTNV-1">
          <mxGeometry x="140" y="400" width="160" height="70" as="geometry" />
        </mxCell>
        <mxCell id="ySk-wd9wmHOXHbUx4WnY-24" value="" style="edgeStyle=orthogonalEdgeStyle;rounded=0;orthogonalLoop=1;jettySize=auto;html=1;" edge="1" parent="WIyWlLk6GJQsqaUBKTNV-1" source="ySk-wd9wmHOXHbUx4WnY-19" target="ySk-wd9wmHOXHbUx4WnY-23">
          <mxGeometry relative="1" as="geometry" />
        </mxCell>
        <mxCell id="ySk-wd9wmHOXHbUx4WnY-19" value="print&lt;span style=&quot;color: rgba(255, 255, 255, 0.85);&quot; class=&quot;s2&quot;&gt;(&lt;/span&gt;&quot;&lt;span class=&quot;Apple-converted-space&quot;&gt;&amp;nbsp; &amp;nbsp; &lt;/span&gt;| | &lt;span class=&quot;Apple-converted-space&quot;&gt;&amp;nbsp; &lt;/span&gt;&quot;&lt;span style=&quot;color: rgba(255, 255, 255, 0.85);&quot; class=&quot;s2&quot;&gt;) 출력&lt;/span&gt;" style="rounded=0;whiteSpace=wrap;html=1;" vertex="1" parent="WIyWlLk6GJQsqaUBKTNV-1">
          <mxGeometry x="160" y="760" width="120" height="60" as="geometry" />
        </mxCell>
        <mxCell id="ySk-wd9wmHOXHbUx4WnY-37" value="" style="edgeStyle=orthogonalEdgeStyle;rounded=0;orthogonalLoop=1;jettySize=auto;html=1;" edge="1" parent="WIyWlLk6GJQsqaUBKTNV-1" source="ySk-wd9wmHOXHbUx4WnY-23" target="ySk-wd9wmHOXHbUx4WnY-36">
          <mxGeometry relative="1" as="geometry" />
        </mxCell>
        <mxCell id="ySk-wd9wmHOXHbUx4WnY-23" value="&lt;br&gt;length가 &amp;lt; 4보다 작은가?" style="rhombus;whiteSpace=wrap;html=1;" vertex="1" parent="WIyWlLk6GJQsqaUBKTNV-1">
          <mxGeometry x="140" y="890" width="160" height="70" as="geometry" />
        </mxCell>
        <mxCell id="ySk-wd9wmHOXHbUx4WnY-26" value="No" style="edgeStyle=orthogonalEdgeStyle;rounded=0;html=1;jettySize=auto;orthogonalLoop=1;fontSize=11;endArrow=block;endFill=0;endSize=8;strokeWidth=1;shadow=0;labelBackgroundColor=none;verticalAlign=middle;entryX=1;entryY=0.5;entryDx=0;entryDy=0;" edge="1" parent="WIyWlLk6GJQsqaUBKTNV-1">
          <mxGeometry x="-0.8507" y="15" relative="1" as="geometry">
            <mxPoint as="offset" />
            <mxPoint x="300" y="920" as="sourcePoint" />
            <mxPoint x="280" y="1135" as="targetPoint" />
            <Array as="points">
              <mxPoint x="360" y="920" />
              <mxPoint x="360" y="1135" />
            </Array>
          </mxGeometry>
        </mxCell>
        <mxCell id="ySk-wd9wmHOXHbUx4WnY-28" value="끝" style="ellipse;whiteSpace=wrap;html=1;" vertex="1" parent="WIyWlLk6GJQsqaUBKTNV-1">
          <mxGeometry x="160" y="1110" width="120" height="50" as="geometry" />
        </mxCell>
        <mxCell id="ySk-wd9wmHOXHbUx4WnY-33" value="" style="edgeStyle=orthogonalEdgeStyle;rounded=0;orthogonalLoop=1;jettySize=auto;html=1;entryX=0;entryY=0.5;entryDx=0;entryDy=0;exitX=0;exitY=0.5;exitDx=0;exitDy=0;" edge="1" parent="WIyWlLk6GJQsqaUBKTNV-1" source="ySk-wd9wmHOXHbUx4WnY-30" target="ySk-wd9wmHOXHbUx4WnY-3">
          <mxGeometry relative="1" as="geometry">
            <mxPoint x="140" y="560" as="sourcePoint" />
            <mxPoint x="110" y="330" as="targetPoint" />
            <Array as="points">
              <mxPoint x="70" y="560" />
              <mxPoint x="70" y="320" />
            </Array>
          </mxGeometry>
        </mxCell>
        <mxCell id="ySk-wd9wmHOXHbUx4WnY-30" value="&lt;br&gt;length의 1을 더한다" style="rounded=0;whiteSpace=wrap;html=1;" vertex="1" parent="WIyWlLk6GJQsqaUBKTNV-1">
          <mxGeometry x="160" y="530" width="120" height="60" as="geometry" />
        </mxCell>
        <mxCell id="ySk-wd9wmHOXHbUx4WnY-35" value="yes" style="text;html=1;align=center;verticalAlign=middle;resizable=0;points=[];autosize=1;strokeColor=none;fillColor=none;" vertex="1" parent="WIyWlLk6GJQsqaUBKTNV-1">
          <mxGeometry x="170" y="478" width="40" height="30" as="geometry" />
        </mxCell>
        <mxCell id="ySk-wd9wmHOXHbUx4WnY-36" value="&lt;br&gt;length의 1을 더한다" style="rounded=0;whiteSpace=wrap;html=1;" vertex="1" parent="WIyWlLk6GJQsqaUBKTNV-1">
          <mxGeometry x="160" y="1010" width="120" height="60" as="geometry" />
        </mxCell>
        <mxCell id="ySk-wd9wmHOXHbUx4WnY-38" value="yes" style="text;html=1;align=center;verticalAlign=middle;resizable=0;points=[];autosize=1;strokeColor=none;fillColor=none;" vertex="1" parent="WIyWlLk6GJQsqaUBKTNV-1">
          <mxGeometry x="170" y="970" width="40" height="30" as="geometry" />
        </mxCell>
        <mxCell id="ySk-wd9wmHOXHbUx4WnY-41" value="" style="edgeStyle=orthogonalEdgeStyle;rounded=0;orthogonalLoop=1;jettySize=auto;html=1;entryX=0;entryY=0.5;entryDx=0;entryDy=0;exitX=0;exitY=0.5;exitDx=0;exitDy=0;" edge="1" parent="WIyWlLk6GJQsqaUBKTNV-1">
          <mxGeometry relative="1" as="geometry">
            <mxPoint x="160" y="1040" as="sourcePoint" />
            <mxPoint x="160" y="800" as="targetPoint" />
            <Array as="points">
              <mxPoint x="70" y="1040" />
              <mxPoint x="70" y="800" />
            </Array>
          </mxGeometry>
        </mxCell>
      </root>
    </mxGraphModel>
  </diagram>
</mxfile>
